<svg id="visual" viewBox="0 0 900 600" width="900" height="600" xmlns="http://www.w3.org/2000/svg" xmlns:xlink="http://www.w3.org/1999/xlink" version="1.1"><rect x="0" y="0" width="900" height="600" fill="#5f0dda"></rect><defs><linearGradient id="grad1_0" x1="33.3%" y1="0%" x2="100%" y2="100%"><stop offset="20%" stop-color="#5f0dda" stop-opacity="1"></stop><stop offset="80%" stop-color="#5f0dda" stop-opacity="1"></stop></linearGradient></defs><defs><linearGradient id="grad2_0" x1="0%" y1="0%" x2="66.7%" y2="100%"><stop offset="20%" stop-color="#5f0dda" stop-opacity="1"></stop><stop offset="80%" stop-color="#5f0dda" stop-opacity="1"></stop></linearGradient></defs><g transform="translate(900, 0)"><path d="M0 486.7C-65.9 483.1 -131.7 479.4 -186.3 449.7C-240.8 420 -284 364.3 -311.1 311.1C-338.3 257.9 -349.4 207.2 -376 155.8C-402.6 104.3 -444.7 52.2 -486.7 0L0 0Z" fill="#1cdd28"></path></g><g transform="translate(0, 600)"><path d="M0 -486.7C66.1 -473.9 132.1 -461.1 176 -425C220 -388.8 241.8 -329.3 289.9 -289.9C338 -250.5 412.5 -231.2 449.7 -186.3C486.9 -141.3 486.8 -70.7 486.7 0L0 0Z" fill="#1cdd28"></path></g></svg>